<?xml version="1.0" standalone="no"?>
<!DOCTYPE svg PUBLIC "-//W3C//DTD SVG 20010904//EN"
 "http://www.w3.org/TR/2001/REC-SVG-20010904/DTD/svg10.dtd">
<svg version="1.0" xmlns="http://www.w3.org/2000/svg"
 width="512.000000pt" height="512.000000pt" viewBox="0 0 512.000000 512.000000"
 preserveAspectRatio="xMidYMid meet">

<g transform="translate(0.000000,512.000000) scale(0.100000,-0.100000)"
fill="#000000" stroke="none">
<path d="M2678 5099 c-43 -22 -78 -81 -78 -129 0 -50 35 -107 80 -130 38 -19
58 -20 687 -20 393 0 674 -4 713 -10 278 -44 521 -223 649 -477 57 -114 83
-224 85 -353 1 -107 -1 -119 -26 -165 -14 -27 -44 -67 -65 -87 -36 -35 -113
-77 -141 -78 -7 0 -57 38 -112 84 -527 443 -1351 786 -2059 856 -134 13 -610
13 -742 0 -877 -89 -1565 -779 -1660 -1665 -14 -131 -6 -375 16 -520 143 -920
813 -1660 1710 -1890 192 -49 341 -68 550 -69 l180 -1 50 -68 c63 -86 188
-206 265 -256 163 -106 378 -143 605 -106 186 30 361 94 398 147 35 48 33 112
-5 203 -45 106 -106 209 -185 312 l-65 85 40 46 c118 142 242 376 242 459 0
101 -62 147 -286 209 -267 73 -531 49 -725 -66 -80 -48 -209 -166 -264 -243
-22 -31 -44 -56 -48 -57 -4 0 -162 77 -350 172 -327 164 -345 174 -407 237
-104 105 -150 214 -150 356 0 228 148 424 369 489 84 25 86 24 101 -41 58
-263 255 -509 506 -634 101 -50 162 -59 214 -32 91 47 109 178 34 245 -11 9
-47 28 -82 42 -160 64 -295 204 -358 372 -13 35 -24 66 -24 68 0 2 48 6 108
10 59 4 150 13 202 20 52 8 98 11 101 7 3 -3 14 -26 23 -51 28 -73 124 -207
201 -284 113 -112 305 -236 364 -236 44 1 106 35 129 72 30 48 29 114 0 158
-13 19 -62 57 -113 88 -105 65 -236 191 -278 269 l-28 52 58 16 c46 13 289 93
338 111 6 2 23 -20 39 -48 42 -76 158 -186 236 -225 131 -66 277 -83 341 -40
68 45 89 147 43 210 -25 35 -91 67 -136 67 -46 0 -94 17 -144 51 -42 29 -104
111 -87 116 5 2 58 31 119 64 218 121 461 295 651 468 64 58 80 67 135 78 269
54 478 315 478 597 0 499 -341 960 -820 1111 -166 52 -219 55 -930 54 -632 0
-656 -1 -692 -20z m-703 -869 c-196 -390 -229 -858 -89 -1263 28 -80 82 -205
122 -279 2 -4 -18 -10 -45 -14 -72 -10 -170 -42 -243 -79 l-66 -33 -71 33
c-151 70 -325 201 -434 328 -212 245 -327 541 -332 854 l-2 124 40 34 c180
157 458 289 703 334 132 25 155 27 320 29 l132 2 -35 -70z m640 29 c498 -89
1079 -333 1501 -632 60 -43 125 -91 144 -108 l35 -30 -40 -35 c-81 -70 -303
-233 -410 -299 -383 -239 -844 -399 -1300 -450 -191 -22 -174 -26 -229 57 -86
131 -155 299 -192 468 -24 112 -29 334 -10 455 29 194 102 386 202 537 l47 70
71 -7 c39 -3 121 -15 181 -26z m-2067 -779 c34 -198 156 -471 290 -650 136
-180 330 -350 524 -459 l57 -33 -45 -83 c-64 -119 -95 -248 -93 -390 l1 -109
-28 -9 c-16 -4 -101 -11 -189 -14 -184 -6 -297 8 -448 57 l-94 30 -37 81
c-127 278 -180 519 -180 829 -1 227 13 321 74 503 38 112 134 317 149 317 4 0
12 -32 19 -70z m872 -2062 c44 -67 132 -155 207 -206 32 -22 217 -119 411
-216 l352 -176 0 -40 0 -40 -77 0 c-354 0 -725 102 -1031 282 -150 89 -384
280 -460 375 l-30 38 222 1 c162 0 240 5 291 16 39 9 73 16 76 17 3 0 21 -22
39 -51z m1975 -218 c22 -6 46 -13 52 -15 13 -4 -25 -79 -69 -135 -37 -48 -132
-141 -165 -161 -19 -12 -42 -38 -53 -60 -39 -76 -18 -147 60 -204 65 -48 157
-149 203 -224 l37 -61 -23 -9 c-37 -14 -161 -31 -229 -31 -81 0 -178 23 -241
58 -64 34 -179 149 -234 231 l-43 64 0 107 0 107 52 74 c102 146 221 237 348
266 62 14 242 10 305 -7z"/>
<path d="M2828 3639 c-43 -22 -78 -81 -78 -129 0 -17 9 -49 20 -70 23 -45 80
-80 130 -80 17 0 49 9 70 20 45 23 80 80 80 130 0 50 -35 107 -80 130 -49 25
-94 25 -142 -1z"/>
</g>
</svg>
