<?xml version="1.0" standalone="no"?>
<!DOCTYPE svg PUBLIC "-//W3C//DTD SVG 20010904//EN"
 "http://www.w3.org/TR/2001/REC-SVG-20010904/DTD/svg10.dtd">
<svg version="1.0" xmlns="http://www.w3.org/2000/svg"
 width="512.000000pt" height="512.000000pt" viewBox="0 0 512.000000 512.000000"
 preserveAspectRatio="xMidYMid meet">

<g transform="translate(0.000000,512.000000) scale(0.100000,-0.100000)"
fill="#000000" stroke="none">
<path d="M735 5105 c-98 -17 -203 -56 -293 -107 -97 -54 -260 -214 -315 -308
-150 -259 -166 -577 -42 -837 46 -98 85 -154 168 -240 l69 -71 -12 -112 c-49
-436 94 -808 395 -1035 88 -66 210 -133 311 -170 l72 -26 5 -177 c3 -134 10
-195 25 -252 11 -41 22 -81 24 -88 3 -12 -56 -45 -432 -245 -154 -81 -244
-161 -293 -258 -50 -101 -57 -145 -57 -385 0 -213 1 -222 23 -255 61 -91 181
-89 251 5 19 25 21 45 26 244 5 207 6 219 29 259 31 55 47 65 345 223 156 83
251 128 255 121 4 -6 31 -40 61 -76 61 -73 136 -142 223 -203 l58 -40 -168
-89 c-190 -100 -263 -161 -320 -269 -52 -98 -63 -163 -63 -392 0 -168 3 -210
16 -238 52 -110 211 -109 264 1 18 37 20 62 20 236 0 215 7 246 67 302 16 15
146 90 289 166 l259 138 280 -9 c177 -6 383 -6 563 0 l285 9 251 -132 c138
-73 270 -150 294 -172 64 -57 71 -87 72 -311 0 -222 8 -250 78 -290 49 -27 91
-28 142 -2 72 37 80 68 80 299 0 226 -7 275 -57 380 -56 118 -125 178 -326
285 l-167 88 57 40 c108 76 199 165 276 272 12 17 29 10 276 -122 145 -76 276
-152 292 -167 60 -56 64 -71 69 -307 5 -199 7 -219 26 -244 70 -94 190 -96
251 -5 22 33 23 42 23 258 0 213 -1 228 -25 299 -28 83 -58 135 -112 195 -51
56 -90 81 -303 194 -102 54 -221 117 -266 141 l-80 44 24 92 c20 75 25 127 29
265 l6 172 36 12 c67 22 199 87 273 134 361 233 528 629 467 1107 l-12 88 79
83 c44 46 96 113 117 148 168 287 167 631 -4 922 -58 100 -210 249 -312 306
-152 86 -334 129 -496 118 -142 -10 -198 -25 -241 -66 -63 -60 -62 -76 13
-359 37 -135 65 -248 63 -249 -2 -2 -113 26 -247 62 -274 74 -298 75 -356 21
-52 -48 -68 -118 -67 -301 1 -133 4 -160 27 -238 90 -294 302 -513 587 -605
134 -44 307 -54 435 -26 39 8 83 18 99 21 l29 6 -6 -144 c-6 -167 -22 -239
-79 -357 -68 -138 -211 -273 -369 -347 -30 -13 -59 -25 -65 -25 -6 0 -21 30
-34 68 -106 318 -375 583 -710 697 l-65 22 -5 126 c-6 146 -17 169 -92 201
-58 24 -106 16 -153 -25 -42 -38 -55 -80 -55 -186 l0 -83 -330 0 -330 0 0 83
c0 106 -13 148 -55 186 -47 41 -95 49 -153 25 -75 -32 -86 -55 -92 -201 l-5
-125 -90 -32 c-157 -57 -269 -125 -392 -239 -131 -122 -250 -307 -299 -462
-10 -30 -21 -55 -26 -55 -4 0 -31 11 -61 24 -160 71 -309 209 -376 350 -58
120 -74 198 -75 356 -1 156 -15 143 124 115 111 -23 293 -16 398 14 139 40
264 113 376 220 221 212 320 518 260 809 -19 95 -52 141 -114 161 -42 14 -50
12 -293 -53 -137 -37 -251 -65 -253 -63 -2 1 26 114 63 249 70 264 72 291 32
342 -29 37 -71 56 -158 72 -94 16 -214 16 -306 -1z m151 -302 c-44 -145 -146
-552 -146 -583 0 -80 62 -142 143 -141 23 0 166 33 317 74 314 84 290 87 270
-35 -18 -108 -78 -218 -164 -303 -237 -234 -597 -234 -831 0 -125 125 -182
270 -172 441 12 217 135 407 322 500 70 34 170 62 233 63 27 1 32 -2 28 -16z
m3469 2 c251 -53 442 -273 462 -533 22 -285 -174 -552 -453 -618 -139 -33
-309 -5 -440 71 -131 76 -249 245 -274 393 -20 123 -44 120 270 35 151 -40
294 -74 317 -74 80 -1 143 61 143 140 0 31 -102 439 -146 584 -7 22 24 22 121
2z m-1293 -1789 c331 -64 588 -317 653 -644 14 -67 16 -124 13 -290 -4 -181
-8 -216 -28 -277 -94 -291 -311 -497 -595 -566 -73 -17 -120 -19 -545 -19
-426 0 -472 2 -546 20 -158 37 -286 112 -401 234 -87 91 -142 182 -185 306
-31 93 -32 99 -36 306 -3 166 -1 228 12 288 56 271 247 499 501 597 139 54
171 57 647 58 338 1 453 -2 510 -13z"/>
</g>
</svg>
