<?xml version="1.0" standalone="no"?>
<!DOCTYPE svg PUBLIC "-//W3C//DTD SVG 20010904//EN"
 "http://www.w3.org/TR/2001/REC-SVG-20010904/DTD/svg10.dtd">
<svg version="1.0" xmlns="http://www.w3.org/2000/svg"
 width="512.000000pt" height="512.000000pt" viewBox="0 0 512.000000 512.000000"
 preserveAspectRatio="xMidYMid meet">

<g transform="translate(0.000000,512.000000) scale(0.100000,-0.100000)"
fill="#000000" stroke="none">
<path d="M2310 4944 c-19 -2 -84 -9 -145 -14 -626 -61 -1241 -305 -1695 -674
-167 -135 -391 -375 -447 -478 l-23 -41 0 -1177 0 -1177 23 -41 c56 -103 277
-339 447 -478 679 -553 1657 -796 2635 -654 569 82 1109 308 1525 638 176 139
448 432 480 516 7 18 10 419 10 1200 0 1338 12 1184 -101 1322 -239 294 -536
528 -907 713 -347 173 -710 279 -1142 331 -86 11 -596 21 -660 14z m670 -359
c668 -90 1222 -345 1628 -752 67 -68 122 -127 122 -132 0 -16 -174 -193 -269
-273 -388 -325 -878 -530 -1473 -615 -176 -25 -680 -25 -857 0 -491 70 -893
214 -1243 446 -175 115 -359 273 -460 393 l-40 48 68 76 c178 200 454 399 744
538 340 163 684 251 1130 290 100 9 540 -4 650 -19z m-2285 -1607 c144 -96
391 -225 540 -284 307 -119 669 -205 995 -234 147 -13 512 -13 655 0 693 63
1328 312 1792 704 l103 87 0 -888 0 -888 -94 -105 c-403 -452 -1001 -743
-1724 -837 -189 -24 -633 -24 -812 0 -728 101 -1313 386 -1716 837 l-94 105 0
888 0 888 103 -87 c56 -47 169 -131 252 -186z"/>
<path d="M2390 4259 c-375 -19 -736 -111 -1055 -269 -213 -104 -299 -162 -325
-215 -46 -94 -16 -172 93 -242 301 -193 677 -323 1092 -379 180 -24 551 -24
730 0 422 57 796 187 1097 382 83 53 114 107 105 182 -6 53 -28 85 -92 134
-60 45 -309 174 -430 221 -362 143 -793 209 -1215 186z m610 -372 c80 -14 201
-42 269 -62 135 -39 331 -113 331 -125 0 -12 -164 -78 -289 -116 -246 -75
-472 -107 -751 -107 -279 0 -505 32 -751 107 -125 38 -289 104 -289 116 0 12
202 88 334 126 120 35 279 66 416 83 41 5 190 8 330 7 221 -3 274 -7 400 -29z"/>
<path d="M1355 2164 c-73 -38 -99 -84 -93 -164 3 -36 12 -67 25 -86 12 -16
111 -94 222 -174 110 -80 201 -148 201 -152 0 -3 -87 -69 -192 -146 -246 -178
-258 -192 -258 -277 0 -141 154 -217 272 -134 18 13 125 90 236 171 l204 148
51 -51 c140 -138 360 -243 595 -285 115 -20 349 -20 467 1 323 57 596 226 738
458 35 57 38 67 35 122 -3 52 -10 70 -50 130 -54 81 -167 194 -253 252 -450
303 -1143 260 -1526 -94 l-59 -55 -32 23 c-18 13 -121 87 -229 166 -108 78
-208 147 -223 153 -39 15 -96 12 -131 -6z m1662 -339 c167 -27 329 -101 426
-193 20 -20 37 -41 37 -48 0 -21 -123 -113 -205 -154 -139 -68 -223 -85 -425
-85 -187 0 -232 8 -370 62 -79 31 -183 98 -229 146 -34 36 -34 37 -16 57 35
38 121 99 191 134 169 84 387 114 591 81z"/>
</g>
</svg>
